<svg width="18" height="18" viewBox="0 0 18 18" fill="none" xmlns="http://www.w3.org/2000/svg">
<g id="icon_remove_circle">
<path id="vector" fill-rule="evenodd" clip-rule="evenodd" d="M9 16.5C13.1421 16.5 16.5 13.1421 16.5 9C16.5 4.85786 13.1421 1.5 9 1.5C4.85786 1.5 1.5 4.85786 1.5 9C1.5 13.1421 4.85786 16.5 9 16.5ZM6.88835 6.20122C6.69851 6.01138 6.39072 6.01138 6.20088 6.20122C6.01104 6.39106 6.01104 6.69884 6.20088 6.88868L8.31238 9.00018L6.20088 11.1117C6.01104 11.3015 6.01104 11.6093 6.20088 11.7991C6.39072 11.989 6.69851 11.989 6.88835 11.7991L8.99985 9.68765L11.1113 11.7991C11.3012 11.989 11.609 11.989 11.7988 11.7991C11.9886 11.6093 11.9886 11.3015 11.7988 11.1117L9.68731 9.00018L11.7988 6.88868C11.9886 6.69884 11.9886 6.39106 11.7988 6.20122C11.609 6.01138 11.3012 6.01138 11.1113 6.20122L8.99985 8.31272L6.88835 6.20122Z" fill="#868B94"/>
</g>
</svg>
