<svg width="15" height="15" viewBox="0 0 15 15" fill="none" xmlns="http://www.w3.org/2000/svg">
<path id="vector" fill-rule="evenodd" clip-rule="evenodd" d="M6.225 0C2.78703 0 0 2.78703 0 6.225C0 9.66297 2.78703 12.45 6.225 12.45C7.72791 12.45 9.10643 11.9174 10.1821 11.0306L13.6757 14.5243C13.91 14.7586 14.2899 14.7586 14.5243 14.5243C14.7586 14.2899 14.7586 13.91 14.5243 13.6757L11.0306 10.1821C11.9174 9.10643 12.45 7.72791 12.45 6.225C12.45 2.78703 9.66297 0 6.225 0ZM1.2 6.225C1.2 3.44977 3.44977 1.2 6.225 1.2C9.00023 1.2 11.25 3.44977 11.25 6.225C11.25 9.00023 9.00023 11.25 6.225 11.25C3.44977 11.25 1.2 9.00023 1.2 6.225Z" fill="#212124"/>
</svg>
